<?xml version="1.0" encoding="UTF-8"?>
<svg id="Layer_2" data-name="Layer 2" xmlns="http://www.w3.org/2000/svg" viewBox="0 0 299.85 108.66">
  <defs>
    <style>
      .cls-1 {
        fill: none;
      }

      .cls-1, .cls-2, .cls-3, .cls-4 {
        stroke-width: 0px;
      }

      .cls-2 {
        fill: #f6f6f6;
      }

      .cls-3 {
        fill: #f8f8f8;
      }

      .cls-4 {
        fill: #fafafa;
      }
    </style>
  </defs>
  <g id="Layer_1-2" data-name="Layer 1">
    <g>
      <path class="cls-3" d="m233.57,77.44c-3.54,8.67-6.8,17.04-10.4,25.27-.75,1.71-2.51,3.64-4.15,4.04-.97.24-3.09-2.09-3.9-3.67-10.16-19.84-20.18-39.75-30.24-59.63-.56-1.11-1.21-2.16-2.51-4.46v61.34c2.87,0,5.87-.41,8.67.16,1.66.34,3.01,2.21,4.5,3.4-1.42,1.04-2.81,2.93-4.26,2.98-8.49.29-17,.29-25.49-.01-1.43-.05-2.79-2.06-4.18-3.17,1.42-1.11,2.72-2.9,4.29-3.19,2.87-.52,5.9-.15,9.13-.15V6.87c-3.04,0-6.19.36-9.19-.15-1.55-.27-2.84-2.09-4.25-3.21,1.4-1.13,2.76-3.2,4.19-3.25,8.49-.31,17.01-.41,25.48.04,1.86.1,4.29,2.36,5.26,4.24,10.1,19.5,19.94,39.13,29.87,58.71.88,1.74,1.86,3.43,3.25,5.97,5.1-12.42,9.86-24.02,14.62-35.61,3.92-9.54,7.96-19.02,11.69-28.64,1.33-3.43,3.17-5.02,6.97-4.95,10.49.19,21,.08,31.49.06,2.64,0,5.64.22,5.2,3.56-.17,1.28-3.2,2.72-5.13,3.09-2.73.53-5.63.13-8.84.13v93.46c3.25,0,6.59-.39,9.76.16,1.63.29,2.97,2.27,4.44,3.49-1.48,1.01-2.95,2.86-4.44,2.88-15.83.21-31.66.21-47.49,0-1.44-.02-2.84-2-4.27-3.07,1.38-1.15,2.62-3.01,4.16-3.29,2.86-.53,5.89-.15,8.93-.15V23.7c-.37-.1-.74-.21-1.11-.31-7.31,17.9-14.61,35.8-22.07,54.05m45.03,6.04V7.09h-14.64v92.98h14.64v-16.59m-73.91-15.47c4.57,9.02,9.14,18.05,14.06,27.77,2.15-5.21,3.81-9.72,5.85-14.05,1.31-2.79,1.25-5.03-.2-7.86-10.49-20.42-21-40.84-30.96-61.52-2.61-5.41-5.83-6.43-10.87-5.05-1.56,10.28-.88,14.93,3.43,23.49,6.13,12.18,12.25,24.37,18.7,37.22Z"/>
      <path class="cls-4" d="m44.96,53.29c-8.17-8.1-16.09-15.94-24.39-24.16v71.25c3.23,0,6.42-.39,9.44.17,1.45.27,2.58,2.3,3.86,3.54-1.33.97-2.64,2.75-4,2.79-8.66.26-17.33.25-25.99,0-1.31-.04-2.57-1.85-3.85-2.84,1.28-1.22,2.4-3.2,3.86-3.48,2.87-.55,5.92-.16,9.19-.16V6.87c-2.79,0-5.78.4-8.58-.15-1.65-.33-3-2.17-4.49-3.34C1.4,2.29,2.78.31,4.22.26,12.71-.04,21.22-.12,29.7.29c2.12.1,4.5,1.92,6.16,3.56,18.92,18.79,37.74,37.68,56.51,56.62,1.24,1.25,1.84,3.12,2.73,4.71.58-.48,1.16-.96,1.75-1.45V6.86c-2.75,0-5.59.4-8.24-.15-1.52-.32-2.71-2.19-4.06-3.36,1.28-1.07,2.54-3.04,3.85-3.08C97.23,0,106.07,0,114.89.3c1.24.04,2.41,2.11,3.61,3.24-1.22,1.1-2.34,2.98-3.68,3.16-3.41.46-6.92.15-11.09.15v6.19c0,29,0,58,0,86.99,0,1.5.21,3.06-.13,4.48-.76,3.12-2.67,4.15-5.5,2.19-1.08-.75-1.94-1.82-2.88-2.77-16.67-16.8-33.34-33.59-50.26-50.64m50.23,41.26c.66-.45,1.87-.88,1.89-1.35.15-4.49-.14-9,.16-13.47.24-3.63-.96-6.14-3.55-8.71-19.83-19.69-39.67-39.39-59.11-59.47-4.32-4.46-8.57-5.42-14.01-4.29-1.47,7.06,0,12.45,5.47,17.8,23.17,22.7,45.81,45.95,69.15,69.49Z"/>
      <path class="cls-2" d="m138.7,92.09c5.83,3.08,7.62,7.13,5.52,11.68-1.9,4.13-6.64,6.03-10.82,4.19-3.98-1.75-5.64-4.98-5.05-9.22.63-4.47,4.09-6.72,10.34-6.64Z"/>
      <rect class="cls-1" x="132.9" y="96.63" width="7.5" height="7.5" rx="3.75" ry="3.75" transform="translate(30.29 232.42) rotate(-87.45)"/>
    </g>
  </g>
</svg>